<svg width="26" height="27" viewBox="0 0 26 27" fill="none" xmlns="http://www.w3.org/2000/svg">
<path d="M13 25.5C9.91952 25.5 7.1188 24.329 4.99408 22.4211C6.16616 19.6329 8.88992 18.1223 12.988 18.1223C17.0903 18.1223 19.8203 19.7052 21.0002 22.4996C18.8765 24.4023 16.0753 25.5 13 25.5ZM13.1446 7.14404C15.7066 7.14404 17.6223 9.12628 17.6223 11.7606C17.6223 14.4698 15.6073 16.6777 13.1446 16.6777C10.6818 16.6777 8.66684 14.4698 8.66684 11.7606C8.66684 9.12628 10.5825 7.14404 13.1446 7.14404ZM13 0.5C5.82036 0.5 0 6.32036 0 13.5C0 13.9758 0.02912 14.4443 0.07904 14.9066C0.09568 15.06 0.12636 15.2087 0.1482 15.3606C0.1924 15.6668 0.23816 15.9721 0.30316 16.2711C0.34112 16.4468 0.39104 16.6169 0.43628 16.7895C0.50648 17.0573 0.57824 17.3236 0.66456 17.5846C0.72384 17.7624 0.79092 17.9356 0.85696 18.1098C0.95056 18.3573 1.04884 18.6012 1.157 18.8409C1.23448 19.013 1.31716 19.1826 1.40244 19.3505C1.51944 19.5824 1.6432 19.8097 1.77372 20.0333C1.86836 20.1955 1.96352 20.3552 2.06492 20.5127C2.20636 20.7327 2.35612 20.9454 2.51004 21.156C2.61768 21.3036 2.72324 21.4513 2.83712 21.5933C3.00612 21.8054 3.18604 22.0072 3.36752 22.2079C3.48192 22.3348 3.59216 22.4648 3.71176 22.5865C3.92236 22.8023 4.14492 23.003 4.36956 23.2032C4.45952 23.2833 4.54064 23.3722 4.6332 23.4502L4.63528 23.4445C6.97423 25.4205 9.93808 26.5032 13 26.5C16.0579 26.5035 19.0183 25.4237 21.3559 23.4523C21.3565 23.454 21.357 23.4557 21.3574 23.4575C21.4469 23.3826 21.5259 23.2968 21.6122 23.2193C21.8421 23.0155 22.0698 22.8101 22.2846 22.5906C22.4032 22.47 22.5118 22.3416 22.6252 22.2162C22.8082 22.014 22.9897 21.8106 23.1598 21.5969C23.2731 21.4555 23.3787 21.3078 23.4858 21.1612C23.6402 20.9506 23.791 20.7368 23.9325 20.5164C24.2742 19.9809 24.578 19.4221 24.8414 18.844C24.9496 18.6043 25.0484 18.3604 25.1425 18.1129C25.2086 17.9382 25.2756 17.765 25.3344 17.5867C25.4212 17.3256 25.493 17.0594 25.5632 16.7911C25.6084 16.6184 25.6584 16.4484 25.6963 16.2732C25.7618 15.9736 25.8076 15.6679 25.8518 15.3611C25.8736 15.2092 25.9043 15.061 25.921 14.9076C25.9704 14.4448 26 13.9763 26 13.5C26 6.32036 20.1796 0.5 13 0.5Z" fill="#B7B7B7"/>
</svg>
