<svg width="13" height="13" viewBox="0 0 13 13" fill="none" xmlns="http://www.w3.org/2000/svg">
<path d="M5.74534 2.84801L8.45734 5.68001C8.58534 5.80801 8.64934 5.96401 8.64934 6.14801C8.64934 6.33201 8.58534 6.48801 8.45734 6.61601L5.74534 9.44801C5.61734 9.57601 5.45734 9.64001 5.26534 9.64001C5.07334 9.64001 4.91334 9.57601 4.78534 9.44801C4.49734 9.16001 4.49734 8.84001 4.78534 8.48801L7.01734 6.16001L4.78534 3.80801C4.49734 3.45601 4.49734 3.13601 4.78534 2.84801C4.91334 2.72001 5.07734 2.65601 5.27734 2.65601C5.47734 2.65601 5.63334 2.72001 5.74534 2.84801Z" fill="#777777"/>
</svg>
