<svg width="12" height="13" viewBox="0 0 12 13" fill="none" xmlns="http://www.w3.org/2000/svg">
<path d="M5.13596 2.93798L7.84796 5.76998C7.97596 5.89798 8.03996 6.05398 8.03996 6.23798C8.03996 6.42198 7.97596 6.57798 7.84796 6.70598L5.13596 9.53798C5.00796 9.66598 4.84796 9.72998 4.65596 9.72998C4.46396 9.72998 4.30396 9.66598 4.17596 9.53798C3.88796 9.24998 3.88796 8.92998 4.17596 8.57798L6.40796 6.24998L4.17596 3.89798C3.88796 3.54598 3.88796 3.22598 4.17596 2.93798C4.30396 2.80998 4.46796 2.74598 4.66796 2.74598C4.86796 2.74598 5.02396 2.80998 5.13596 2.93798Z" fill="#999999"/>
</svg>
