<svg width="30" height="32" viewBox="0 0 30 32" fill="none" xmlns="http://www.w3.org/2000/svg">
<path d="M0.5 2C0.5 1.17157 1.17157 0.5 2 0.5H29.5V31.5H2C1.17157 31.5 0.5 30.8284 0.5 30V2Z" fill="white"/>
<path d="M18.0721 21.18C18.3148 21.4227 18.3148 21.6467 18.0721 21.852C17.8295 22.0947 17.6055 22.0947 17.4001 21.852L11.9121 16.336C11.6881 16.112 11.6881 15.8787 11.9121 15.636L17.4001 10.12C17.6055 9.87733 17.8295 9.87733 18.0721 10.12C18.3148 10.3253 18.3148 10.5493 18.0721 10.792L13.0601 16L18.0721 21.18Z" fill="#999999"/>
<path d="M0.5 2C0.5 1.17157 1.17157 0.5 2 0.5H29.5V31.5H2C1.17157 31.5 0.5 30.8284 0.5 30V2Z" stroke="#DDDDDD"/>
</svg>
