<svg width="140" height="31" viewBox="0 0 140 31" fill="none" xmlns="http://www.w3.org/2000/svg">
<path d="M9.26772 4.50695C9.66208 4.40835 10.0564 4.30976 10.5494 4.30976H11.8311C14.1973 4.30976 16.0705 6.183 16.0705 8.45061V22.352C16.0705 23.0422 15.8733 23.6337 15.6762 24.1267C15.6762 24.2253 15.5776 24.3238 15.479 24.4224C15.9719 24.8168 16.5635 25.1126 17.155 25.2112C17.2536 25.1126 17.2536 25.014 17.3522 24.8168C17.7466 24.0281 17.9438 23.1407 17.9438 22.1548V8.64779C17.9438 5.29568 15.2818 2.43652 11.8311 2.43652H10.648C9.26772 2.43652 8.08462 2.83089 7.0987 3.61962C6.11279 4.21117 5.42265 4.9999 4.92969 5.98582L6.60574 6.77455C7.19729 5.69004 8.08462 4.90131 9.26772 4.50695Z" fill="#E95E89"/>
<path d="M4.92996 5.98581C5.42292 4.99989 6.11306 4.21116 7.00039 3.61961C7.9863 2.92947 9.26799 2.43651 10.5497 2.43651H11.8314C15.2821 2.43651 17.944 5.29567 17.944 8.64778V22.352C17.944 23.3379 17.7469 24.2252 17.3525 25.014C17.2539 25.1126 17.2539 25.2112 17.1553 25.4083C17.7469 25.6055 18.2398 25.7041 18.5356 25.7041H19.1271C19.5215 24.7182 19.8173 23.7323 19.8173 22.5492V8.54919C19.8173 4.21116 16.268 0.661865 11.8314 0.661865H10.5497C8.47926 0.661865 6.60602 1.4506 5.22574 2.73229C4.33841 3.42243 3.74686 4.21116 3.25391 5.19708L4.92996 5.98581Z" fill="#F09B9E"/>
<path d="M2.56338 16.7322H1.1831L0 18.5068H2.56338V16.7322Z" fill="#F09B9E"/>
<path d="M20.9997 25.6055H19.0278H18.4363C18.1405 25.6055 17.6476 25.5069 17.056 25.3097C16.4645 25.1125 15.8729 24.9154 15.38 24.521C15.2814 24.4224 15.2814 24.4224 15.1828 24.3238L12.4222 21.5632L9.66164 18.8027C8.57713 17.8168 7.29544 17.2252 6.21094 16.9294V18.9999C7.19685 19.3942 8.08418 19.8872 8.87291 20.6759L11.6335 23.4365L14.0983 25.9013L14.394 26.197C14.7884 26.5914 15.1828 26.7886 15.6757 26.9858C16.4645 27.2816 17.2532 27.3801 17.549 27.3801H17.9433H22.1828L20.9997 25.6055Z" fill="#F09B9E"/>
<path d="M16.0703 29.0562C16.5633 29.1547 17.0562 29.2533 17.4506 29.2533C16.9576 29.2533 16.5633 29.1547 16.0703 29.0562Z" fill="#E95E89"/>
<path d="M2.56338 18.5068H0V20.4787H2.56338V18.5068Z" fill="#E95E89"/>
<path d="M13.8027 28.0703C14.4929 28.5633 15.2816 28.859 15.9717 29.0562C15.3802 28.859 14.5915 28.5633 13.8027 28.0703Z" fill="#E95E89"/>
<path d="M13.8029 28.0703C13.2113 28.2674 12.6198 28.366 11.9296 28.366H10.5494C7.09865 28.1689 4.33808 25.5069 4.33808 22.1548V20.3801V18.5069V16.6336V8.54913C4.33808 8.05618 4.43667 7.66181 4.53527 7.26744C4.63386 6.77449 4.83104 6.38012 4.92963 5.98575L3.25358 5.19702C2.76062 6.18294 2.46484 7.26744 2.46484 8.45054V16.7322V18.5069V20.4787V22.4505C2.46484 26.7886 6.01414 30.3379 10.4508 30.3379H11.831C13.4085 30.3379 14.7888 29.9435 16.0705 29.1548C15.2817 28.859 14.5916 28.5632 13.8029 28.0703Z" fill="#E95E89"/>
<path d="M13.7039 28.0704C13.5067 27.9718 13.3095 27.7746 13.1123 27.676C13.4081 27.7746 13.6053 27.9718 13.7039 28.0704Z" fill="#F09B9E"/>
<path d="M13.7041 28.0703C13.5069 27.9718 13.3098 27.7746 13.1126 27.676C12.9154 27.4788 12.6196 27.2816 12.4224 26.9858L12.0281 26.5915C11.9295 26.5915 11.8309 26.5915 11.7323 26.5915H10.4506C8.08441 26.5915 6.21117 24.7182 6.21117 22.4506V21.0703V19.0985V17.0281V8.54922C6.21117 7.95767 6.40835 7.36612 6.60554 6.77457L4.92948 5.98584C4.83089 6.38021 4.63371 6.77457 4.53511 7.16894C4.43652 7.5633 4.43652 8.05626 4.43652 8.45063V16.7323V18.6056V20.4788V22.2534C4.43652 25.6056 7.19709 28.2675 10.6478 28.4647H12.0281C12.6196 28.4647 13.2112 28.2675 13.7041 28.0703C13.8027 28.0703 13.8027 28.0703 13.7041 28.0703Z" fill="#F09B9E"/>
<path d="M4.43652 8.45064C4.43652 8.05627 4.53511 7.56331 4.53511 7.16895C4.43652 7.6619 4.43652 8.05627 4.43652 8.45064Z" fill="#F09B9E"/>
<path d="M12.5213 26.9859C12.7185 27.2817 13.0143 27.4789 13.2115 27.6761C13.0143 27.4789 12.8171 27.2817 12.5213 26.9859Z" fill="#E95E89"/>
<path d="M18.0419 27.2815H17.6476C17.2532 27.2815 16.4645 27.1829 15.7743 26.8871C15.2814 26.6899 14.7884 26.4928 14.4926 26.0984L14.1969 25.8026L11.7321 23.3378L8.87291 20.6759C8.08418 19.8871 7.09826 19.3942 6.21094 19.0984V21.0702C6.50671 21.1688 6.80249 21.366 6.90108 21.4646L9.76023 24.3237L12.0278 26.5913L12.5208 27.0843C12.718 27.2815 12.9152 27.4787 13.1123 27.6759C13.3095 27.873 13.5067 27.9716 13.7039 28.0702C13.7039 28.0702 13.7039 28.0702 13.8025 28.0702C14.5912 28.5632 15.2814 28.859 15.9715 29.0561C16.4645 29.1547 16.9574 29.2533 17.3518 29.2533C17.9433 29.2533 18.3377 29.2533 18.4363 29.2533H22.2814V27.2815H18.0419Z" fill="#E95E89"/>
<path d="M29.2812 11.2111C29.2812 8.94351 30.5629 7.56323 33.1263 7.56323C35.6897 7.56323 36.9714 8.94351 36.9714 11.2111V18.9013C36.9714 19.69 36.7742 20.3801 36.4784 20.9717C36.577 21.2675 36.7742 21.2675 37.1686 21.2675H37.4643V23.3379H37.07C35.9855 23.3379 35.1967 22.9435 34.901 22.352C34.408 22.5491 33.8165 22.6477 33.1263 22.6477C30.6615 22.6477 29.2812 21.2675 29.2812 18.9999V11.2111ZM31.746 19.0984C31.746 20.183 32.239 20.5773 33.0277 20.5773C33.8165 20.5773 34.3094 20.183 34.3094 19.0984V11.1125C34.3094 10.028 33.8165 9.63366 33.0277 9.63366C32.239 9.63366 31.746 10.028 31.746 11.1125V19.0984Z" fill="#EA5D8A"/>
<path d="M42.1972 7.7605V19.0985C42.1972 20.183 42.6901 20.4788 43.4789 20.4788C44.2676 20.4788 44.7606 20.0844 44.7606 19.0985V7.7605H47.1267V18.9999C47.1267 21.3661 45.8451 22.6478 43.3803 22.6478C40.9155 22.6478 39.6338 21.2675 39.6338 18.9999V7.7605H42.1972Z" fill="#EA5D8A"/>
<path d="M52.6474 13.9718H56.1967V16.0422H52.6474V20.3802H57.084V22.4506H50.084V7.7605H57.084V9.83092H52.6474V13.9718Z" fill="#EA5D8A"/>
<path d="M62.3095 13.9718H65.8588V16.0422H62.3095V20.3802H66.7461V22.4506H59.8447V7.7605H66.7461V9.83092H62.3095V13.9718Z" fill="#EA5D8A"/>
<path d="M71.7744 11.8028V22.4506H69.4082V7.7605H72.6617L75.2251 16.5351V7.7605H77.4927V22.4506H74.9293L71.7744 11.8028Z" fill="#EA5D8A"/>
<path d="M83.9017 7.56323C86.3665 7.56323 87.6482 8.94351 87.6482 11.2111V11.7041H85.282V11.1125C85.282 10.028 84.7891 9.63366 84.0003 9.63366C83.2116 9.63366 82.7187 10.028 82.7187 11.1125C82.7187 12.197 83.2116 12.9858 84.8877 14.2675C87.0567 15.9435 87.6482 17.2252 87.6482 18.9013C87.6482 21.2675 86.3665 22.5491 83.9017 22.5491C81.437 22.5491 80.1553 21.1689 80.1553 18.9013V18.0139H82.5215V19.0984C82.5215 20.183 83.0144 20.4787 83.8032 20.4787C84.5919 20.4787 85.0849 20.0844 85.0849 19.0984C85.0849 18.0139 84.5919 17.2252 82.9158 15.9435C80.7468 14.2675 80.1553 12.9858 80.1553 11.3097C80.1553 8.94351 81.437 7.56323 83.9017 7.56323Z" fill="#EA5D8A"/>
<path d="M98.4926 7.56323C100.957 7.56323 102.239 8.94351 102.239 11.2111V11.7041H99.8729V11.1125C99.8729 10.028 99.3799 9.63366 98.5912 9.63366C97.8024 9.63366 97.3095 10.028 97.3095 11.1125C97.3095 12.197 97.8024 12.9858 99.4785 14.2675C101.648 15.9435 102.239 17.2252 102.239 18.9013C102.239 21.2675 100.957 22.5491 98.4926 22.5491C96.0278 22.5491 94.7461 21.1689 94.7461 18.9013V18.0139H97.1123V19.0984C97.1123 20.183 97.6053 20.4787 98.394 20.4787C99.1827 20.4787 99.6757 20.0844 99.6757 19.0984C99.6757 18.0139 99.1827 17.2252 97.5067 15.9435C95.3376 14.2675 94.7461 12.9858 94.7461 11.3097C94.7461 8.94351 96.0278 7.56323 98.4926 7.56323Z" fill="#F29BA1"/>
<path d="M110.225 18.2112L112 7.7605H115.549V22.4506H113.084V11.9013L111.31 22.4506H108.944L107.07 11.9999V22.4506H104.803V7.7605H108.352L110.225 18.2112Z" fill="#F29BA1"/>
<path d="M121.07 7.7605H118.507V22.4506H121.07V7.7605Z" fill="#F29BA1"/>
<path d="M124.028 7.7605H126.592V20.3802H130.831V22.4506H124.028V7.7605Z" fill="#F29BA1"/>
<path d="M135.563 13.9718H139.113V16.0422H135.563V20.3802H140V22.4506H133.099V7.7605H140V9.83092H135.563V13.9718Z" fill="#F29BA1"/>
</svg>
