<svg width="12" height="7" viewBox="0 0 12 7" fill="none" xmlns="http://www.w3.org/2000/svg">
<path d="M1.41417 0.581006C1.57284 0.581006 1.70817 0.641673 1.82017 0.763006L6.07617 5.01901L10.3322 0.763006C10.4535 0.641673 10.5912 0.581006 10.7452 0.581006C10.8992 0.581006 11.0368 0.641673 11.1582 0.763006C11.2795 0.884339 11.3378 1.01967 11.3332 1.16901C11.3285 1.31834 11.2702 1.45367 11.1582 1.57501L6.48217 6.23701C6.37017 6.35834 6.23717 6.41901 6.08317 6.41901C5.92917 6.41901 5.79151 6.35834 5.67017 6.23701L1.00817 1.57501C0.886839 1.45367 0.826172 1.31601 0.826172 1.16201C0.826172 1.00801 0.884505 0.872673 1.00117 0.756006C1.11784 0.639339 1.25551 0.581006 1.41417 0.581006Z" fill="black"/>
</svg>
