<svg width="11" height="7" viewBox="0 0 11 7" fill="none" xmlns="http://www.w3.org/2000/svg">
<path d="M1.08019 0.581006C1.23885 0.581006 1.37419 0.641673 1.48619 0.763006L5.74219 5.01901L9.99819 0.763006C10.1195 0.641673 10.2572 0.581006 10.4112 0.581006C10.5652 0.581006 10.7029 0.641673 10.8242 0.763006C10.9455 0.884339 11.0039 1.01967 10.9992 1.16901C10.9945 1.31834 10.9362 1.45367 10.8242 1.57501L6.14819 6.23701C6.03619 6.35834 5.90319 6.41901 5.74919 6.41901C5.59519 6.41901 5.45752 6.35834 5.33619 6.23701L0.674188 1.57501C0.552854 1.45367 0.492188 1.31601 0.492188 1.16201C0.492188 1.00801 0.550521 0.872673 0.667188 0.756006C0.783854 0.639339 0.921521 0.581006 1.08019 0.581006Z" fill="black"/>
</svg>
