<svg width="30" height="32" viewBox="0 0 30 32" fill="none" xmlns="http://www.w3.org/2000/svg">
<path d="M0.5 0.5H28C28.8284 0.5 29.5 1.17157 29.5 2V30C29.5 30.8284 28.8284 31.5 28 31.5H0.5V0.5Z" fill="white"/>
<path d="M11.9261 21.18L16.9381 16L11.9261 10.792C11.6835 10.5493 11.6835 10.3253 11.9261 10.12C12.1688 9.87733 12.3928 9.87733 12.5981 10.12L18.0861 15.636C18.3101 15.8787 18.3101 16.112 18.0861 16.336L12.5981 21.852C12.3928 22.0947 12.1688 22.0947 11.9261 21.852C11.6835 21.6467 11.6835 21.4227 11.9261 21.18Z" fill="#999999"/>
<path d="M0.5 0.5H28C28.8284 0.5 29.5 1.17157 29.5 2V30C29.5 30.8284 28.8284 31.5 28 31.5H0.5V0.5Z" stroke="#DDDDDD"/>
</svg>
