<svg width="11" height="7" viewBox="0 0 11 7" fill="none" xmlns="http://www.w3.org/2000/svg">
<path d="M0.748156 0.581006C0.906823 0.581006 1.04216 0.641673 1.15416 0.763006L5.41016 5.01901L9.66616 0.763006C9.78749 0.641673 9.92516 0.581006 10.0792 0.581006C10.2332 0.581006 10.3708 0.641673 10.4922 0.763006C10.6135 0.88434 10.6718 1.01967 10.6672 1.16901C10.6625 1.31834 10.6042 1.45367 10.4922 1.57501L5.81616 6.23701C5.70416 6.35834 5.57116 6.41901 5.41716 6.41901C5.26316 6.41901 5.12549 6.35834 5.00416 6.23701L0.342156 1.57501C0.220823 1.45367 0.160156 1.31601 0.160156 1.16201C0.160156 1.00801 0.21849 0.872673 0.335156 0.756006C0.451823 0.63934 0.58949 0.581006 0.748156 0.581006Z" fill="black"/>
</svg>
